<svg id="svg" version="1.1" xmlns="http://www.w3.org/2000/svg" xmlns:xlink="http://www.w3.org/1999/xlink" width="400" height="415.5844155844156" viewBox="0, 0, 400,415.5844155844156"><g id="svgg"><path id="path0" d="M188.200 92.148 C 185.617 93.287,185.800 89.704,185.800 139.161 C 185.800 163.933,185.857 188.792,185.927 194.404 C 186.049 204.239,186.022 204.680,185.162 206.604 C 184.291 208.552,184.265 209.035,184.089 226.800 C 183.870 248.769,184.261 252.597,186.505 250.490 C 187.025 250.000,187.759 249.600,188.135 249.600 C 188.511 249.600,189.579 248.789,190.509 247.797 C 194.686 243.341,197.763 240.107,198.876 239.000 C 199.540 238.340,200.559 237.266,201.141 236.613 C 201.724 235.960,202.818 234.880,203.574 234.213 C 204.767 233.160,207.414 230.647,211.476 226.711 C 212.094 226.112,212.974 225.212,213.431 224.711 C 213.888 224.210,214.968 223.154,215.831 222.364 C 216.694 221.574,218.088 220.089,218.928 219.064 C 219.768 218.039,220.632 217.200,220.847 217.200 C 221.297 217.200,223.168 215.169,223.187 214.660 C 223.203 214.240,225.568 212.000,225.996 212.000 C 226.504 212.000,227.605 210.091,228.497 207.665 C 229.729 204.316,229.842 199.258,229.930 143.374 L 230.009 93.748 228.973 92.774 L 227.936 91.800 208.668 91.710 C 193.407 91.638,189.150 91.729,188.200 92.148 " stroke="none" fill="#ec4632" fill-rule="evenodd"></path><path id="path1" d="M188.318 253.101 C 185.906 256.754,185.958 256.558,185.616 263.330 C 184.821 279.059,185.130 366.294,185.986 367.973 C 187.442 370.827,187.580 370.844,208.800 370.714 C 229.700 370.586,229.538 370.610,230.148 367.560 C 230.287 366.867,230.400 341.675,230.400 311.577 L 230.400 256.854 229.100 255.927 C 227.802 255.001,227.777 255.000,211.000 254.800 C 196.034 254.622,194.051 254.524,192.839 253.900 C 192.090 253.515,191.301 253.200,191.085 253.200 C 190.870 253.200,190.382 252.840,190.001 252.401 C 189.317 251.613,189.294 251.623,188.318 253.101 M194.925 376.299 C 198.404 376.366,203.984 376.366,207.325 376.299 C 210.666 376.232,207.820 376.178,201.000 376.178 C 194.180 376.178,191.446 376.233,194.925 376.299 " stroke="none" fill="#34ac54" fill-rule="evenodd"></path><path id="path2" d="M64.869 228.200 C 64.785 252.354,64.913 256.324,65.755 255.651 C 66.008 255.449,90.496 255.217,122.442 255.114 L 178.683 254.932 181.738 253.966 C 185.375 252.816,185.480 252.615,184.581 248.573 C 183.989 245.912,183.926 243.278,184.062 226.758 C 184.215 208.173,184.208 207.967,183.408 207.773 C 180.644 207.102,167.134 206.905,119.626 206.844 C 64.207 206.772,65.395 206.811,65.101 205.071 C 65.020 204.592,64.916 215.000,64.869 228.200 " stroke="none" fill="#fcc010" fill-rule="evenodd"></path><path id="path3" d="M250.595 200.587 C 249.845 201.167,249.843 201.187,250.566 200.933 C 251.152 200.727,251.255 200.797,251.007 201.232 C 250.755 201.673,250.795 201.696,251.186 201.335 C 252.030 200.556,251.501 199.887,250.595 200.587 M252.000 201.200 C 252.000 201.420,252.495 201.597,253.100 201.594 C 253.957 201.589,254.068 201.502,253.600 201.200 C 252.817 200.694,252.000 200.694,252.000 201.200 M248.200 205.612 C 245.614 205.948,242.912 206.247,238.800 206.651 C 237.370 206.792,235.491 207.243,234.625 207.654 C 233.759 208.064,232.732 208.400,232.344 208.400 C 231.955 208.400,230.864 209.370,229.919 210.555 C 228.974 211.740,227.712 213.006,227.116 213.368 C 226.520 213.730,225.350 214.874,224.516 215.909 C 223.682 216.945,221.992 218.784,220.759 219.996 C 219.527 221.208,218.305 222.605,218.045 223.100 C 217.785 223.595,217.400 224.000,217.189 224.000 C 216.795 224.000,215.492 225.295,213.400 227.765 C 212.740 228.545,212.033 229.187,211.830 229.191 C 211.626 229.196,210.429 230.280,209.169 231.600 C 207.909 232.920,206.707 234.000,206.499 234.000 C 206.057 234.000,202.400 237.885,202.400 238.355 C 202.400 238.529,201.974 238.866,201.454 239.103 C 200.934 239.340,199.809 240.399,198.954 241.456 C 198.099 242.514,196.275 244.524,194.900 245.924 C 193.525 247.325,192.395 248.680,192.389 248.935 C 192.383 249.191,191.758 249.850,191.000 250.400 C 190.242 250.950,189.617 251.548,189.611 251.729 C 189.596 252.167,190.648 253.200,191.110 253.200 C 191.312 253.200,192.090 253.515,192.839 253.900 C 194.051 254.524,196.034 254.622,211.000 254.800 C 227.337 254.994,227.833 255.023,229.000 255.852 C 230.163 256.678,230.312 256.687,233.800 256.152 C 238.326 255.457,254.101 255.511,264.200 256.256 C 269.619 256.655,281.194 256.763,311.000 256.693 L 350.600 256.600 350.600 231.000 L 350.600 205.400 300.600 205.350 C 273.100 205.322,249.520 205.440,248.200 205.612 " stroke="none" fill="#4484f3" fill-rule="evenodd"></path><path id="path4" d="M181.029 85.942 C 179.728 86.228,179.148 87.538,179.230 90.000 C 179.256 90.770,179.260 114.902,179.239 143.626 L 179.200 195.852 177.778 196.530 C 176.855 196.970,176.151 197.698,175.773 198.604 L 175.189 200.000 121.095 200.043 C 58.291 200.092,65.411 199.944,65.358 201.200 C 65.335 201.750,65.228 203.730,65.120 205.600 C 65.011 207.470,64.996 208.312,65.086 207.471 C 65.211 206.301,65.366 206.040,65.750 206.359 C 66.091 206.642,83.349 206.797,119.626 206.844 C 167.962 206.907,179.635 207.079,183.443 207.785 C 185.031 208.079,185.955 205.970,185.977 202.000 C 185.985 200.570,185.885 176.180,185.754 147.800 C 185.616 117.723,185.667 95.629,185.876 94.830 C 186.695 91.706,186.003 91.800,208.197 91.800 L 227.936 91.800 228.972 92.774 L 230.009 93.748 229.930 143.374 C 229.842 199.258,229.729 204.316,228.497 207.665 C 227.605 210.091,226.504 212.000,225.996 212.000 C 225.568 212.000,223.203 214.240,223.187 214.660 C 223.168 215.169,221.297 217.200,220.847 217.200 C 220.632 217.200,219.768 218.039,218.928 219.064 C 218.088 220.089,216.694 221.574,215.831 222.364 C 214.968 223.154,213.888 224.210,213.431 224.711 C 212.974 225.212,212.094 226.112,211.476 226.711 C 207.414 230.647,204.767 233.160,203.574 234.213 C 202.818 234.880,201.724 235.960,201.141 236.613 C 200.559 237.266,199.540 238.340,198.876 239.000 C 197.763 240.107,194.686 243.341,190.509 247.797 C 189.579 248.789,188.499 249.606,188.109 249.613 C 187.233 249.628,185.378 251.218,185.042 252.242 C 184.871 252.763,183.838 253.302,181.739 253.966 L 178.686 254.932 122.643 255.094 C 91.819 255.182,66.330 255.361,66.000 255.491 C 65.670 255.621,65.250 255.693,65.066 255.652 C 64.882 255.611,64.835 256.077,64.961 256.689 C 65.087 257.300,65.229 258.520,65.278 259.400 C 65.362 260.928,65.990 262.077,66.679 261.960 C 66.855 261.930,91.228 261.927,120.839 261.953 L 174.679 262.000 175.315 263.619 C 175.810 264.880,176.309 265.389,177.571 265.919 L 179.192 266.600 179.251 319.200 C 179.284 348.130,179.280 372.385,179.242 373.101 C 179.156 374.725,179.870 376.136,180.631 375.844 C 180.944 375.723,181.200 375.754,181.200 375.913 C 181.200 376.071,193.080 376.225,207.600 376.255 C 224.856 376.290,234.000 376.172,234.000 375.912 C 234.000 375.693,234.257 375.613,234.571 375.733 C 234.885 375.854,235.357 375.693,235.620 375.376 C 235.883 375.059,235.964 374.800,235.800 374.800 C 235.636 374.800,235.695 374.567,235.932 374.282 C 236.234 373.919,236.368 357.521,236.383 319.320 L 236.405 264.875 237.809 263.471 L 239.214 262.066 254.707 261.854 C 271.452 261.625,271.200 261.636,271.200 261.110 C 271.200 260.913,271.371 260.858,271.580 260.988 C 272.049 261.277,272.928 259.730,272.598 259.196 C 272.466 258.983,272.601 258.902,272.898 259.016 C 273.402 259.209,275.538 257.371,275.168 257.063 C 273.994 256.088,239.276 255.300,233.800 256.125 L 230.600 256.607 230.400 312.442 C 230.239 357.349,230.099 368.399,229.682 368.902 C 228.151 370.746,227.540 370.800,208.248 370.800 C 187.540 370.800,187.421 370.785,185.979 367.959 C 185.211 366.453,185.195 365.382,185.241 318.110 C 185.296 262.324,185.422 257.924,187.052 255.015 C 188.112 253.122,191.377 249.600,192.072 249.600 C 192.252 249.600,192.400 249.346,192.400 249.035 C 192.400 248.725,193.525 247.325,194.900 245.924 C 196.275 244.524,198.099 242.514,198.954 241.456 C 199.809 240.399,200.934 239.340,201.454 239.103 C 201.974 238.866,202.400 238.529,202.400 238.355 C 202.400 237.885,206.057 234.000,206.499 234.000 C 206.707 234.000,207.909 232.920,209.169 231.600 C 210.429 230.280,211.626 229.196,211.830 229.191 C 212.033 229.187,212.740 228.545,213.400 227.765 C 215.492 225.295,216.795 224.000,217.189 224.000 C 217.400 224.000,217.785 223.595,218.045 223.100 C 218.305 222.605,219.527 221.208,220.759 219.996 C 221.992 218.784,223.682 216.945,224.516 215.909 C 225.350 214.874,226.520 213.730,227.116 213.368 C 227.712 213.006,228.974 211.740,229.919 210.555 C 230.864 209.370,231.955 208.400,232.344 208.400 C 232.732 208.400,233.759 208.063,234.625 207.651 C 235.491 207.240,237.460 206.781,239.000 206.633 C 242.562 206.289,244.615 206.065,248.590 205.585 C 250.344 205.373,255.879 205.200,260.890 205.200 C 270.547 205.200,270.654 205.176,268.823 203.422 C 266.580 201.273,252.711 199.373,251.366 201.030 C 251.022 201.454,250.874 201.544,251.036 201.232 C 251.259 200.803,251.145 200.730,250.566 200.933 C 249.823 201.194,249.824 201.184,250.576 200.601 C 251.328 200.019,251.321 200.000,250.356 200.000 C 249.808 200.000,249.144 200.216,248.880 200.480 C 248.579 200.781,248.400 200.802,248.400 200.538 C 248.400 200.303,247.554 200.106,246.500 200.094 C 240.505 200.029,240.903 200.124,240.416 198.648 C 239.883 197.035,238.992 196.160,237.500 195.788 L 236.400 195.513 236.372 145.457 C 236.341 88.648,236.341 88.607,235.478 87.745 C 235.325 87.592,235.203 87.272,235.206 87.033 C 235.209 86.795,235.387 86.870,235.600 87.200 C 235.813 87.530,235.991 87.597,235.994 87.349 C 236.004 86.625,235.035 86.025,233.772 85.972 C 228.822 85.767,181.948 85.740,181.029 85.942 M253.600 201.200 C 254.068 201.502,253.957 201.589,253.100 201.594 C 252.495 201.597,252.000 201.420,252.000 201.200 C 252.000 200.694,252.817 200.694,253.600 201.200 M63.435 250.363 C 62.236 251.615,62.383 252.575,63.940 253.679 C 64.343 253.966,64.776 254.470,64.900 254.800 C 65.025 255.130,65.038 254.050,64.929 252.400 C 64.691 248.799,64.796 248.943,63.435 250.363 " stroke="none" fill="#d1ae9c" fill-rule="evenodd"></path></g></svg>